<?xml version="1.0" encoding="utf-8"?>
<!-- Generator: Adobe Illustrator 19.2.1, SVG Export Plug-In . SVG Version: 6.00 Build 0)  -->
<svg version="1.1" id="Layer_1" xmlns="http://www.w3.org/2000/svg" xmlns:xlink="http://www.w3.org/1999/xlink" x="0px" y="0px"
	 viewBox="0 0 612 792" style="enable-background:new 0 0 612 792;" xml:space="preserve">
<style type="text/css">
	.st0{fill:#000;}
</style>
<g>
	<!-- Resistor Symbol -->
	<path class="st0" d="M494,428c-16,0-32-0.1-48-0.1c-22.5,0-45,0-67.5,0c-1.8,0-3.6,0-5.8,0c-4.1,7.9-8.3,15.8-12.8,24.6
		c-6.9-14.8-13.5-28.7-20.4-43.5c-7.3,14.7-14.3,28.6-21.7,43.4c-7.1-14.4-13.8-28.1-21-42.7c-7.1,14.4-13.8,28-21,42.6
		c-7.5-14.7-14.6-28.7-22-43.4c-4.3,6.7-8.3,12.8-12.3,19c-1.9,0-3.8,0-5.6,0c-36.3,0-72.7,0-109,0c-2,0-4,0.1-6,0.1
		c0-1.7,0-3.3,0-5c39.1,0,78.3,0,117.8,0c5.1-7.9,10.2-15.8,15.6-24.1c7.2,14.2,14.1,27.8,21.4,42.3c7.1-14.4,13.8-28,21-42.8
		c7.1,14.4,13.9,28.1,21,42.7c7.4-14.8,14.4-28.8,21.8-43.5c6.9,14.7,13.5,28.7,20.5,43.6c3.5-6.6,6.5-12.3,9.6-18.3
		c41.5,0,82.9,0,124.3,0C494,424.7,494,426.3,494,428z"/>

	<!-- E -->
	<path class="st0" d="M494,395c-12.6,0-25.3,0-38.2,0c0-2.9,0-5.5,0-8.3c0.9-0.4,1.8-0.9,2.9-1.4c0-10.6,0-21.1,0-31.9
		c-0.9-0.6-1.9-1.3-3-2.1c0-2.5,0-5,0-8.1c12.9-0.1,25.6-0.2,38.4-0.2c0,4.3,0,8.7,0,13c-2.3,0-4.7,0-7.1,0
		c-0.7-1.1-1.4-2.1-1.9-2.8c-4.6,0-8.7,0-12.9,0c0,3.7,0,7,0,11c6.9,0,13.5,0,20.1,0c0,3.2,0,5.8,0,8.9c-6.8,0-13.4,0-20.2,0
		c0,4.3,0,8,0,12c4.5,0,8.8,0,13.1,0c0.6-1.1,1.2-2,1.8-3.1c2.4,0,4.8,0,7.1,0C494,386.3,494,390.7,494,395z"/>

	<!-- R in Resi -->
	<path class="st0" d="M121,343c8,0.3,16,0.1,23.9,1c11.7,1.3,17.2,11,12.5,21.8c-1.4,3.2-4.8,5.6-7.7,8.9c2.6,4.3,5.6,9.4,8.8,14.7
		c1.2,0.3,2.4,0.7,3.9,1.1c0.1,1.2,0.2,2.5,0.3,4.1c-2.8,0-5.4,0-8.4,0c-1.8-2.9-3.8-6.2-5.8-9.4c-2-3.3-4-6.5-6.1-10
		c-3.5,0-7.1,0-11,0c0,4.7,0,9.3,0,14.2c1,0.4,2,0.7,3.3,1.2c0,1.2,0,2.5,0,4.5c-4.5,0-9.1,0-13.7,0c0-1.7,0-3.3,0-5
		c1.2-0.2,2.5-0.3,3.8-0.5c0-13.7,0-26.9,0-40.3c-1.3-0.4-2.5-0.8-3.8-1.2C121,346.3,121,344.7,121,343z M131.1,369.8
		c5.8-0.7,11-0.8,15.9-1.9c4-0.9,5.4-4.2,5.2-9.6c-0.1-4.8-1.5-7-5.7-8.3c-5-1.6-10-1.2-15.4-0.8c0,5.1,0,9.8,0,14.4
		C131.1,365.2,131.1,366.8,131.1,369.8z"/>

	<!-- dot above i -->
	<path class="st0" d="M250,341c0,2.6,0,5.2,0,8.1c-2.1,0.1-3.7,0.2-6,0.3c0-3,0-5.7,0-8.4C246,341,248,341,250,341z"/>

	<!-- R in STORE-->
	<path class="st0" d="M439.4,374.8c3.9,8.4,5.6,10.5,10.1,12.1c0,2.4,0,4.8,0,7.7c-4,0-7.9,0-12.5,0c-3.2-5.5-6.7-11.5-10.3-17.6
		c-2.7,0-5.3,0-8.3,0c0,2.8,0,5.3,0,8.3c0.7,0.4,1.6,0.9,2.8,1.6c0,2.4,0,4.8,0,7.7c-6.1,0-12.2,0-18.6,0c0-2.6,0-5.1,0-7.9
		c0.9-0.4,1.9-0.9,3-1.3c0-10.8,0-21.4,0-32.1c-1.1-0.6-2.1-1.2-3-1.7c0-2.7,0-5.3,0-8.2c10.3,0,20.3-0.8,30.1,0.2
		c12,1.3,17.7,12.3,12.8,23.4C444.3,369.8,441.6,372.1,439.4,374.8z M418.4,352.4c0,5.3,0,9.9,0,15.1c3.9-0.2,7.6-0.1,11.1-0.8
		c3.3-0.6,4.7-2.9,4.7-6.7c0.1-3.9-1.2-6.3-4.4-6.9C426.2,352.6,422.4,352.6,418.4,352.4z"/> 

	<!-- O -->
	<path class="st0" d="M397.6,369.5c-0.6,4.3-0.7,8.6-1.8,12.8c-1.8,7.2-6.7,12-14.1,13.2c-4.5,0.7-9.4,0.8-13.9,0
		c-8.3-1.3-13.6-6.8-14.7-15c-0.9-7-1.1-14.3-0.2-21.3c1.3-10.5,7.4-16,17.9-16.9c4.1-0.4,8.4,0,12.3,0.9
		c7.9,1.8,12.8,8.5,13.7,17.7c0.3,2.8,0,5.7,0,8.5C397.2,369.4,397.4,369.4,397.6,369.5z M364.6,369c0.4,3.4,0.5,6.9,1.4,10.3
		c1.1,4.6,4.1,6.6,8.7,6.7c4.6,0,7.7-2,8.9-6.5c1.7-6.9,1.7-13.9,0-20.7c-1.1-4.5-4.3-6.5-8.9-6.4c-4.6,0.1-7.5,2.1-8.7,6.7
		C365.1,362.3,365,365.6,364.6,369z"/>

	<!-- S -->
	<path class="st0" d="M261.8,394.7c0-4.2,0-8,0-12c2.4,0,4.5,0,6.9,0c0.5,1.1,1.1,2.4,2.1,4.4c3.9-0.4,8.3-0.4,12.4-1.5
		c3.4-0.9,3.8-5.8,0.9-8.2c-1.4-1.1-3.1-1.9-4.8-2.7c-4-2-8.2-3.7-12.1-5.9c-5.7-3.3-8.1-9.1-6.9-15.3c1.2-6,4.7-9.2,11.6-10.6
		c8.3-1.7,16.5-0.7,24.8,1.1c0,3.9,0,7.5,0,11.4c-2.3,0-4.4,0-7,0c-0.4-0.8-1-1.9-1.8-3.6c-3.3,0-6.9-0.1-10.5,0
		c-2.1,0.1-3.9,1-4.4,3.3c-0.6,2.5,0.7,4.2,2.8,5.3c2.5,1.3,5.1,2.4,7.7,3.6c2.5,1.2,5.1,2.4,7.6,3.7c6,3.2,8.3,8.4,7.5,15
		c-0.8,6.7-4.7,11-11.2,12.5C279.1,397.1,270.7,396.2,261.8,394.7z"/> 

	<!-- T -->
	<path class="st0" d="M312.6,352.9c-0.7,1.2-1.2,2.2-1.8,3.3c-2.2,0-4.2,0-6.6,0c0-4.3,0-8.4,0-12.8c14.2,0,28.1,0,42.4,0
		c0,4.1,0,8.1,0,12.6c-2.1,0-4.4,0-6.7,0c-0.5-0.9-1-1.9-1.5-3c-1.9,0-3.7,0-6,0c0,10.6,0,21.2,0,32.3c0.4,0.3,1.3,0.8,2.5,1.5
		c0,2.4,0,5,0,7.9c-6.3,0-12.3,0-18.8,0c0-2.6,0-5.2,0-8c0.8-0.4,1.8-0.9,2.7-1.4c0-10.8,0-21.4,0-32.3
		C316.6,353,314.8,353,312.6,352.9z"/>

	<!-- e -->
	<path class="st0" d="M198.9,378.1c-8.8,0-17.3,0-25.6,0c-1.1,8.4,1.1,11.7,8.6,12.4c3.1,0.3,6.3-0.1,9.5-0.2c2-0.1,3.9-0.2,6.1-0.4
		c0,1.7,0,3,0,4.1c-0.4,0.3-0.7,0.6-0.9,0.7c-5.1,0.4-10.3,1.3-15.4,1.2c-9-0.2-13.5-4.5-14.3-13.4c-0.4-4.4-0.4-9,0.1-13.4
		c0.9-7.9,6.2-12.7,13.9-13.1c9.7-0.6,15.1,3,17.3,11.5c0.3,1.1,0.6,2.3,0.7,3.4C199,373,198.9,375.1,198.9,378.1z M192.7,372.8
		c-0.4-8.6-3.7-12.1-10.6-11.7c-6.4,0.3-9.5,4.4-8.8,11.7C179.6,372.8,186,372.8,192.7,372.8z"/>

	<!-- s -->
	<path class="st0" d="M206.7,394.6c0-3.1,0-5.7,0-8.6c1.5,0,2.8,0,4.2,0c0.5,1.5,1,2.9,1.6,4.6c3.2,0,6.3,0.2,9.4-0.1
		c2.4-0.2,4.6-1.1,5.1-4c0.5-2.8-0.6-4.9-3.2-6.2c-3.1-1.6-6.4-2.9-9.5-4.5c-1.9-1-3.8-2.1-5.4-3.5c-3-2.7-3.6-6.3-2.5-10.1
		c1.1-3.9,4.3-5.6,7.9-6c5.8-0.8,11.6-0.7,17.4,1c0,2.6,0,5,0,7.6c-1.5,0-2.8,0-4.1,0c-0.6-1.2-1.1-2.4-1.8-3.8
		c-2.8,0-5.7-0.1-8.5,0c-2.2,0.1-4.4,0.7-5,3.3c-0.6,2.7,0.7,4.5,3,5.7c1.8,0.9,3.6,1.8,5.4,2.6c2.5,1.3,5.1,2.4,7.6,3.8
		c4.3,2.5,5.5,6.4,4.7,11.1c-0.7,4.3-3.6,6.6-7.6,7.6C219.2,396.8,213.1,395.9,206.7,394.6z"/>

	<!-- i -->
	<path class="st0" d="M249.7,389.3c1.6,0.5,2.5,0.8,3.7,1.2c0.1,1.2,0.2,2.5,0.3,4.1c-4.5,0-8.7,0-13.4,0c-0.1-1.2-0.2-2.5-0.4-4
		c1.3-0.4,2.4-0.8,3.6-1.2c0-8.9,0-17.6,0-26.7c-1-0.4-2-0.7-3.3-1.2c0-1.3,0-2.7,0-4.4c3.1,0,6.1,0,9.4,0
		C249.7,367.8,249.7,378.4,249.7,389.3z"/>
</g>
</svg>
