<?xml version="1.0" encoding="utf-8"?>
<!-- Generator: Adobe Illustrator 19.2.1, SVG Export Plug-In . SVG Version: 6.00 Build 0)  -->
<svg version="1.1" id="Layer_1" xmlns="http://www.w3.org/2000/svg" xmlns:xlink="http://www.w3.org/1999/xlink" x="0px" y="0px"
	 viewBox="0 0 612 792" style="enable-background:new 0 0 612 792;" xml:space="preserve">
<style type="text/css">
	.st0{fill:#FFFFFF;}
</style>
<g>
	<path class="st0" d="M380,343c0.8,0.3,1.7,0.8,2.5,1c6.8,1.6,12.8,4.7,14.7,11.9c2.9,10.9,0.7,19.8-9.4,25.8
		c-1.4,0.8-2.9,1.6-4.4,2.3c-0.1,0.1-0.2,0.3-0.3,0.5c7.4,4.5,10.6,12.5,15.4,19.3c1.9,0,3.9,0,6.1,0c5.1,6.3,11.1,11.2,20,13.9
		c-12.8,0-24.4,0-36.3,0c-3.5-6-7.1-12.2-10.7-18.4c-0.9-1.6-1.8-3.2-2.8-4.7c-3.2-4.8-5.3-5.8-11.6-5.5c-0.7,4.7-0.3,9.5-0.3,14.2
		c-0.1,4.6,0,9.3,0,14.2c-5.4,0-10.4,0-15.9,0c-0.4-6.8-0.1-13.6-0.2-20.4c-0.1-6.8,0-13.7,0-20.5c0-6.8,0-13.6,0-20.6
		c-1.9-0.3-3.5-0.5-5.6-0.7c-0.1-4.3-0.2-8.4-0.3-12.5C354,343,367,343,380,343z M363.1,376.1c3.3,0,6.2,0.1,9,0
		c4.1-0.2,6.9-2.4,8.3-6.1c0.7-1.9,0.8-4.2,0.7-6.3c-0.2-4.2-2.9-7.2-7.1-7.6c-3.6-0.4-7.2-0.3-10.9-0.1
		C363.1,362.8,363.1,369.2,363.1,376.1z"/>
	<path class="st0" d="M199,343c0.4,0.3,0.7,0.7,1.1,0.8c13.7,2.2,22,10.6,25.6,23.3c2.8,10,2.8,20.4-1.7,30.2
		c-5.1,11.2-13.6,17.8-25.9,19.9c-6.8,1.2-13.2,0.5-19.4-1.9c-11.5-4.3-18-13-20.7-24.8c-0.2-0.9-0.6-1.7-1-2.6c0-4.7,0-9.3,0-14
		c0.3-0.3,0.8-0.7,0.8-1c1.8-15.7,14.4-27.8,28.6-29.3c0.2,0,0.4-0.4,0.6-0.7C191,343,195,343,199,343z M210.6,380.5
		c-0.5-3.6-0.7-7.3-1.7-10.7c-1.8-6.5-6-11.2-12.8-12.5c-6.8-1.3-12.8,0.6-17.2,6.4c-2.5,3.4-3.9,7.2-4.5,11.4
		c-1,7-0.4,13.8,3.1,20.2c6.1,11.1,22.6,11.1,28.9,1C209.6,391.3,210.4,386.1,210.6,380.5z"/>
	<path class="st0" d="M339,343c0,15.5,0.2,30.9-0.1,46.4c-0.1,3.9-0.8,8-2.2,11.6c-2.9,7.9-8.4,13.1-16.9,15.3
		c-7.8,2-15.4,1.9-22.9-0.4c-8.7-2.7-13.6-9.1-15.8-17.7c-0.9-3.5-1.2-7.2-1.2-10.8c-0.1-14.8,0-29.6,0-44.4c5.3,0,10.7,0,16,0
		c0,14.5-0.1,28.9,0,43.4c0,2.8,0.3,5.7,1.1,8.3c1.7,5.6,5.4,8.6,11.7,9c5.4,0.4,10.6-2.2,12.4-7.2c1.1-3,1.8-6,1.7-9.2
		c0-14.8,0-29.6,0-44.4C328.3,343,333.7,343,339,343z"/>
	<path class="st0" d="M278,343c0,4.1,0,8.3,0,12.9c-2.2,0-4,0-5.8,0c-5.8,0-11.7,0-17.5,0c-3.9,0-7.1,1.4-9.7,4.6c0,1.5,0,3.2,0,4.8
		c2.2,3.1,5.2,5,8.5,6.6c5.1,2.5,10.2,4.8,14.9,7.8c7.1,4.4,9.3,11.6,8.3,19.4c-1,7.6-5.5,12.8-12.7,15.8c-4.4,1.8-9,2.5-13.6,2.6
		c-15.6,0.3-31.3,0.1-47.1-0.1c7.6-1.9,13.1-6.8,18.2-12.6c8.4,0,16.9,0.1,25.4,0c2.5,0,5-0.4,7.3-1.1c1.6-0.5,3.2-1.8,4.4-3
		c1.8-1.8,1.9-4.4,0.2-6.3c-1.6-1.8-3.5-3.6-5.6-4.8c-3.1-1.8-6.6-3.1-9.9-4.7c-4.8-2.3-9.3-4.9-12.5-9.4
		c-5.5-7.7-4.3-23.5,7.2-28.6c3-1.4,6-2.8,9.4-3c0.5,0,1-0.6,1.6-0.9C258.7,343,268.3,343,278,343z"/>
	<path class="st0" d="M457,418c-6.5,0-13,0.1-19.5-0.2c-3.8-0.1-7.6-0.4-11.3-1.3c-12.2-2.8-20.2-10.4-23.6-22.4
		c-3.6-12.7-2.4-25,5.3-36c5.7-8.1,13.4-13.1,23.4-14.4c0.6-0.1,1.1-0.5,1.6-0.8c8,0,16,0,24,0c0,4.7,0,9.3,0,14
		c-6.2,0-12.3-0.3-18.5,0.1c-7.9,0.5-14.2,4-17.9,11.4c-2.8,5.6-3.3,11.5-2.3,17.5c1.1,6.4,4.3,11.8,10.3,15.1
		c3.7,2,7.8,2.6,11.9,2.8c5.5,0.2,11,0.1,16.5,0.2C457,408.7,457,413.3,457,418z"/>
	<path class="st0" d="M157,434c0.7-1.2,1.3-2.5,2.1-3.7c3.2-4.8,8.8-6.5,14.4-4.3c4.6,1.8,7.3,7.2,6.9,12.4
		c-0.4,5.8-3.5,9.3-8.4,11.6c-2.3,0-4.7,0-7,0c-4.7-3.1-4.7-3.1-8-8C157,439.3,157,436.7,157,434z M166.5,444.9c1.9,0,3.5,0,4.9,0
		c4.9-4.9,4.8-10.2-0.2-14.8c-0.7,0-1.5-0.2-2.4-0.2c-0.8,0-1.6,0.1-2.2,0.2C161.5,434.8,161.4,440.1,166.5,444.9z"/>
	<path class="st0" d="M238,450c0-8.1,0-16.2,0-24.4c4.5-1.1,8.7-0.3,12.9,0.5c4.3,0.9,5.8,6.9,2.7,10.4c-0.7,0.8-1.8,1.4-2.5,2
		c2.4,4,4.7,7.7,7,11.5c-2,0-4,0-6,0c-2.2-3.4-3.4-7.7-7.7-10.4c-0.5,1.5-1,2.5-1.1,3.5c-0.2,2.3-0.1,4.6-0.2,6.9
		C241.3,450,239.7,450,238,450z M243.4,430c0,2.3,0,4.1,0,6.1c1.7-0.1,3.2-0.2,4.4-0.3c2-2.1,2.4-3.9,0.3-5.8
		C246.6,430,245.1,430,243.4,430z"/>
	<path class="st0" d="M209,450c-4.5-2.8-5.8-7.2-5.8-12.2c0-3.9,0-7.9,0-11.6c2-1.5,3.5-1.3,5.5-0.4c0.1,1.3,0.2,2.7,0.3,4.2
		c0,3,0,6,0,9c0.1,5.3,1.1,6.2,6.7,5.8c2-1.5,2.3-3.7,2.3-6.1c-0.1-4.3,0-8.6,0-13.2c1.7-0.1,3.1-0.1,4.6-0.2
		c0.2,0.7,0.6,1.1,0.6,1.5c0,3.8-0.2,7.7,0.1,11.5c0.4,5.3-1.4,9.2-6.2,11.8C214.3,450,211.7,450,209,450z"/>
	<path class="st0" d="M440,450c-0.3-0.7-0.9-1.5-0.9-2.2c-0.1-7.8,0-15.5,0-23.5c1.8,0,3.2,0,5,0c0,3.2,0,6.3,0,9.9
		c1.8-0.9,3-1.7,4.3-2c1.2-0.3,2.6-0.1,4.5-0.1c1.3,1.5,2.7,3.2,4.2,4.9c0,2.3,0,4.7,0,7c-1.2,2.4-2.7,4.5-5,6c-1.7,0-3.3,0-5,0
		c-0.8-0.6-1.7-1.1-2.7-1.8c-0.2,0.9-0.2,1.4-0.3,1.8C442.7,450,441.3,450,440,450z M444.1,440.4c0.1,3.5,1.7,5.6,3.5,5.6
		c1.9,0,3.7-1.8,3.9-4.3c0.1-1.2-0.2-2.6-0.7-3.8c-0.8-2.1-4-2.6-5.3-0.7C444.8,438.3,444.4,439.8,444.1,440.4z"/>
	<path class="st0" d="M281,450c0-8.5,0-16.9,0-25.7c1.5-0.1,3-0.2,4.6-0.3c0.9,3.2,0.1,6.4,0.6,10c1-0.5,1.9-1.1,2.8-1.4
		c3.7-1.5,8,0,9.1,4.8c1,4.6,0.4,8.5-3.4,11.6c-0.3,0.3-0.5,0.8-0.8,1.1c-2,0-4,0-6,0c-0.4-0.6-0.9-1.2-1.7-2.3
		c-0.2,1.1-0.2,1.7-0.3,2.3C284.3,450,282.7,450,281,450z M286,438.9c0,0.9,0,2,0,3.2c0,0.3,0,0.7,0.1,1c0.6,2.1,2.9,3.4,4.6,2.6
		c1.8-1,2.4-2.5,2.4-4.6c0-2-0.3-3.8-2.1-4.7C288.6,435.2,287.3,436.9,286,438.9z"/>
	<path class="st0" d="M186,450c-0.8-0.6-1.5-1.1-2.6-1.9c-0.1-1-0.2-2.3-0.3-3.5c0.5-0.2,0.8-0.5,1-0.4c1.1,0.3,2.2,0.6,3.2,1.1
		c2.4,1.1,4.5,0.7,6.4-1.1c0.4-2.6-1.5-3.4-3.3-4.3c-1.5-0.7-3.1-1.3-4.4-2.3c-4.6-3.6-4-9.1,1.3-11.5c3.6-1.7,7.4-1.7,11.2,0.1
		c0,1.4,0,2.8,0,4.3c-1.9-0.5-3.6-1-5.6-1.6c-1.3,0.6-2.7,1.3-4.1,2.1c0.5,2.5,1.9,3.3,3.7,4c1.7,0.7,3.4,1.5,4.7,2.7
		c4.1,3.7,3.3,8.8-1.7,11.3c-0.6,0.3-1.1,0.6-1.6,1C191.3,450,188.7,450,186,450z"/>
	<path class="st0" d="M394,450c-0.5-0.4-0.9-0.8-1.5-1.1c-5.1-2.8-7.5-8.2-6.1-13.8c1.6-6.2,5.9-9.9,11.8-10.1c1.3,0,2.7,0,4,0.2
		c0.8,0.1,1.5,0.6,2.5,1c0,1.3,0,2.8,0,4.2c-0.3,0.1-0.6,0.3-0.9,0.3c-1.1-0.2-2.2-0.7-3.3-0.8c-6.7-0.7-9.5,3.7-8.4,10.1
		c0.5,2.9,2.9,4.8,6,5c1.2,0.1,2.3,0.1,3.5-0.1c1-0.1,1.9-0.5,2.8-0.8c0.2,0.3,0.5,0.6,0.5,0.9c0.1,1.1,0,2.3,0,3.2
		c-0.8,0.7-1.3,1.3-1.9,1.8C400,450,397,450,394,450z"/>
	<path class="st0" d="M421,450c-2.4-2.7-3.3-5.9-3-9.6c0.2-2.6,0-5.3,0-8.1c1.8,0,3.2,0,5.1,0c0,2.7-0.1,5.1,0,7.6
		c0.1,1.5,0.4,2.9,0.8,4.3c0.4,1.2,1.5,2,2.7,1.6c0.9-0.4,2-1.3,2.2-2.2c0.4-1.4,0.2-3,0.2-4.5c0-2.1,0-4.2,0.1-6.6
		c2.1,0,3.6,0,5.7,0c-0.5,6.1,1,11.8-0.9,17.5c-1.3,0-2.7,0-4,0c-0.4-0.6-0.7-1.2-1.3-2.2c-0.7,0.9-1.2,1.6-1.7,2.2
		C425,450,423,450,421,450z"/>
	<path class="st0" d="M307,450c-2-1.6-4.4-2.6-5.3-5.5c-1.5-4.5,0-9.3,4.1-11.5c4.1-2.2,9.5-1.1,12.2,2.4c3,4.1,2.1,9.3-1,12.2
		c-0.9,0.9-2,1.6-2.9,2.4C311.7,450,309.3,450,307,450z M307.3,437.4c-0.9,3.2-1,5-0.3,6.4c0.4,0.7,0.9,1.5,1.6,1.8
		c2.4,1,4.2-0.1,5.3-2.3c0-1.6,0-3.3,0-4.8C311,435.6,311,435.6,307.3,437.4z"/>
	<path class="st0" d="M264,450c-0.6-0.5-1.1-1-1.7-1.5c-3.6-2.9-4.5-8.5-2.3-12.6c1.5-2.8,6.1-4.7,11-3.7c3.7,0.7,5.7,4,6.1,8
		c0.4,4.5-1.9,7.3-5.2,9.8C269.3,450,266.7,450,264,450z M271.9,442.1c0-1.5,0.1-2,0-2.5c-0.3-2-1.7-3.4-3.5-3.5
		c-1.9-0.2-2.9,0.9-3.7,2.6c-1,2-0.6,3.9,0.4,5.6c1.3,2.3,4.2,2.5,5.8,0.4C271.6,443.7,271.8,442.3,271.9,442.1z"/>
	<path class="st0" d="M327,450c-3.9-3.7-2.6-8.5-3-13.2c-0.6-0.4-1.3-0.8-1.9-1.2c-1.8-3.2,3.4-3.8,2.1-6.8c1.8-0.6,3.3-1,5.1-1.6
		c0.4,1.7,0.6,3.1,0.9,4.5c0.8,0.2,1.6,0.4,2.7,0.7c0.1,1,0.1,2,0.2,3.1c-1.2,0.3-2.1,0.6-3,0.9c0,3.1,0,6,0,8.9
		c1.1,0.4,2,0.7,2.9,1c0,1.3,0,2.4,0,3.6C331,450,329,450,327,450z"/>
	<path class="st0" d="M363,450c-1.1-1.3-1.8-2.8-0.8-4.5c2.4,0.4,5,1.6,7.7-0.8c-2.8-1.6-5.4-3.1-7.9-4.5c0-2.1,0-3.7,0-5.2
		c3-3.8,6.8-2.9,10.7-2.8c0.4,0.6,0.9,1.1,1.1,1.7c0.2,0.6,0,1.2-0.1,2.2c-2.3,0-4.3,0-6.4,0c-0.5,2.1,0.7,2.6,2,2.9
		c2.9,0.8,5.2,2.2,5.5,4.9c0,3.8-2.7,4.7-4.8,6.1C367.7,450,365.3,450,363,450z"/>
	<path class="st0" d="M351,450c-0.9-0.7-1.8-1.3-2.7-2c-3.2-2.8-3.9-5.5-2.5-9.8c1.3-3.9,3.9-6,7.9-6.2c1.5-0.1,3,0,4.9,0
		c0.2,1.5,0.4,2.9,0.5,4.3c-0.6,0.2-0.9,0.4-1.1,0.3c-2.8-1.1-5.2-0.8-7.1,2.1c0,1.4,0,3,0,4.6c3,3.1,3,3.1,7.7,2.2
		c0.8,1.7,0.3,3.2-0.7,4.6C355.7,450,353.3,450,351,450z"/>
	<path class="st0" d="M409,450c-0.1-7.7-0.1-15.3-0.1-23c0-0.8,0.1-1.6,0.1-2.7c1.5-0.1,2.9-0.2,4.9-0.3c0,8.8,0.1,17.4,0.1,26
		C412.3,450,410.7,450,409,450z"/>
	<path class="st0" d="M337,450c-0.3-0.6-0.8-1.2-0.8-1.8c-0.1-5.1,0-10.2,0-14.8c1.8-2,3.4-1,5.2-1.1c0.2,1.2,0.5,2.2,0.5,3.1
		c0.1,3.5,0.1,6.9,0,10.4c-0.1,1.4-0.5,2.8-0.8,4.2C339.7,450,338.3,450,337,450z"/>
	<path class="st0" d="M341.7,428.6c-0.7,0.4-1.5,0.8-2.6,1.4c-1.6-0.7-3.2-1.5-3-4.1c1.2-1.2,2.5-2.4,4.5-1.4
		C342.2,425.3,342.3,426.8,341.7,428.6z"/>
</g>
</svg>
